# xmcd
#
# Track frame offsets:
#	150
#	17865
#	33997
#	50760
#	64400
#	81340
#	96305
#	113060
#	128497
#	145692
#	162387
#	177482
#	196435
#	216370
#	227922
#
# Disc length: 3297
#
# Revision: 2
# Processed by: cddbd v1.5.1PL0 Copyright (c) Steve Scherf et al.
# Submitted via: CDmax 1.8
# Normalized: r1:DSETVAR1,TDELIM( - )
#
DISCID=dd0cdf0f
DTITLE=Various Artist - Cross The Border
DYEAR=1991
DGENRE=Country
TTITLE0=Doobie Brothers - This Train I'm on
TTITLE1=Lucy J. Dalton - Black Coffee
TTITLE2=Garth Brooks - The Thunder Rolls
TTITLE3=T. Graham Brown - Shakey Ground
TTITLE4=Bonnie Raitt - Something To Talk About
TTITLE5=Billy Dean - Somewhere In My Broken Heart
TTITLE6=James Blundell - Time On His Hands
TTITLE7=Skip Ewing - Naturally
TTITLE8=Pirates Of The Mississippi - Down And Out In Birmingham
TTITLE9=Tanya Tucker - Everything That You Want
TTITLE10=Sawyer Brown - One Less Pony
TTITLE11=Gary Morris - Texas Bound
TTITLE12=Nitty Gritty Dirt Band - Cadillac Ranch
TTITLE13=Wild Rose - Everything He Touches (Turns To Gold)
TTITLE14=Garth Brooks - Friends In Low Places
EXTD=
EXTT0=
EXTT1=
EXTT2=
EXTT3=
EXTT4=
EXTT5=
EXTT6=
EXTT7=
EXTT8=
EXTT9=
EXTT10=
EXTT11=
EXTT12=
EXTT13=
EXTT14=
PLAYORDER=
